<mxfile host="app.diagrams.net" modified="2023-03-22T09:31:55.007Z" agent="5.0 (Windows NT 10.0; Win64; x64) AppleWebKit/537.36 (KHTML, like Gecko) Chrome/111.0.0.0 Safari/537.36" etag="S8G7XHCp2xdIAb7NhQjO" version="21.0.10" type="github">
  <diagram name="Strona-1" id="Lb2HZUEffjCKTEpYOJZc">
    <mxGraphModel dx="1434" dy="764" grid="1" gridSize="10" guides="1" tooltips="1" connect="1" arrows="1" fold="1" page="1" pageScale="1" pageWidth="827" pageHeight="1169" math="0" shadow="0">
      <root>
        <mxCell id="0" />
        <mxCell id="1" parent="0" />
        <mxCell id="MuoZc_a7aPeaP6ZBHlzd-1" value="Ethers Provider" style="rounded=1;whiteSpace=wrap;html=1;" parent="1" vertex="1">
          <mxGeometry x="90" y="430" width="120" height="60" as="geometry" />
        </mxCell>
        <mxCell id="MuoZc_a7aPeaP6ZBHlzd-2" value="" style="endArrow=classic;html=1;rounded=0;exitX=1;exitY=0.5;exitDx=0;exitDy=0;" parent="1" source="MuoZc_a7aPeaP6ZBHlzd-1" target="MuoZc_a7aPeaP6ZBHlzd-5" edge="1">
          <mxGeometry width="50" height="50" relative="1" as="geometry">
            <mxPoint x="400" y="810" as="sourcePoint" />
            <mxPoint x="320" y="515" as="targetPoint" />
            <Array as="points">
              <mxPoint x="320" y="460" />
            </Array>
          </mxGeometry>
        </mxCell>
        <mxCell id="MuoZc_a7aPeaP6ZBHlzd-4" value="On every block" style="text;html=1;strokeColor=none;fillColor=none;align=center;verticalAlign=middle;whiteSpace=wrap;rounded=0;" parent="1" vertex="1">
          <mxGeometry x="210" y="420" width="120" height="30" as="geometry" />
        </mxCell>
        <mxCell id="MuoZc_a7aPeaP6ZBHlzd-5" value="isProcessing" style="rhombus;whiteSpace=wrap;html=1;" parent="1" vertex="1">
          <mxGeometry x="280" y="550" width="80" height="80" as="geometry" />
        </mxCell>
        <mxCell id="MuoZc_a7aPeaP6ZBHlzd-6" value="" style="endArrow=classic;html=1;rounded=0;exitX=0.5;exitY=1;exitDx=0;exitDy=0;" parent="1" source="MuoZc_a7aPeaP6ZBHlzd-5" edge="1">
          <mxGeometry width="50" height="50" relative="1" as="geometry">
            <mxPoint x="400" y="840" as="sourcePoint" />
            <mxPoint x="320" y="680" as="targetPoint" />
          </mxGeometry>
        </mxCell>
        <mxCell id="MuoZc_a7aPeaP6ZBHlzd-7" value="isProcessing = true" style="rounded=1;whiteSpace=wrap;html=1;" parent="1" vertex="1">
          <mxGeometry x="260" y="680" width="120" height="60" as="geometry" />
        </mxCell>
        <mxCell id="MuoZc_a7aPeaP6ZBHlzd-10" value="" style="endArrow=classic;html=1;rounded=0;exitX=0.5;exitY=1;exitDx=0;exitDy=0;" parent="1" edge="1">
          <mxGeometry width="50" height="50" relative="1" as="geometry">
            <mxPoint x="319.5" y="740" as="sourcePoint" />
            <mxPoint x="319.5" y="790" as="targetPoint" />
          </mxGeometry>
        </mxCell>
        <mxCell id="MuoZc_a7aPeaP6ZBHlzd-11" value="poll(blockNumber)" style="rounded=1;whiteSpace=wrap;html=1;" parent="1" vertex="1">
          <mxGeometry x="260" y="790" width="120" height="60" as="geometry" />
        </mxCell>
        <mxCell id="MuoZc_a7aPeaP6ZBHlzd-12" value="" style="endArrow=classic;html=1;rounded=0;exitX=0.5;exitY=1;exitDx=0;exitDy=0;" parent="1" edge="1">
          <mxGeometry width="50" height="50" relative="1" as="geometry">
            <mxPoint x="320" y="850" as="sourcePoint" />
            <mxPoint x="320" y="900" as="targetPoint" />
          </mxGeometry>
        </mxCell>
        <mxCell id="MuoZc_a7aPeaP6ZBHlzd-13" value="isProcessing = false" style="rounded=1;whiteSpace=wrap;html=1;" parent="1" vertex="1">
          <mxGeometry x="260" y="900" width="120" height="60" as="geometry" />
        </mxCell>
        <mxCell id="MuoZc_a7aPeaP6ZBHlzd-14" value="" style="endArrow=classic;html=1;rounded=0;exitX=1;exitY=0.5;exitDx=0;exitDy=0;entryX=1;entryY=0.5;entryDx=0;entryDy=0;" parent="1" source="MuoZc_a7aPeaP6ZBHlzd-5" target="MuoZc_a7aPeaP6ZBHlzd-15" edge="1">
          <mxGeometry width="50" height="50" relative="1" as="geometry">
            <mxPoint x="400" y="840" as="sourcePoint" />
            <mxPoint x="520" y="730" as="targetPoint" />
            <Array as="points">
              <mxPoint x="470" y="590" />
              <mxPoint x="470" y="1040" />
            </Array>
          </mxGeometry>
        </mxCell>
        <mxCell id="MuoZc_a7aPeaP6ZBHlzd-15" value="Stop" style="ellipse;whiteSpace=wrap;html=1;aspect=fixed;" parent="1" vertex="1">
          <mxGeometry x="280" y="1000" width="80" height="80" as="geometry" />
        </mxCell>
        <mxCell id="MuoZc_a7aPeaP6ZBHlzd-16" value="" style="endArrow=classic;html=1;rounded=0;exitX=0.5;exitY=1;exitDx=0;exitDy=0;" parent="1" edge="1">
          <mxGeometry width="50" height="50" relative="1" as="geometry">
            <mxPoint x="319.5" y="960" as="sourcePoint" />
            <mxPoint x="320" y="1000" as="targetPoint" />
          </mxGeometry>
        </mxCell>
        <mxCell id="MuoZc_a7aPeaP6ZBHlzd-17" value="Block Processing Handler&lt;br&gt;" style="swimlane;whiteSpace=wrap;html=1;" parent="1" vertex="1">
          <mxGeometry x="30" y="510" width="590" height="590" as="geometry" />
        </mxCell>
        <mxCell id="MuoZc_a7aPeaP6ZBHlzd-18" value="OnStart" style="rounded=1;whiteSpace=wrap;html=1;" parent="1" vertex="1">
          <mxGeometry x="80" y="40" width="120" height="60" as="geometry" />
        </mxCell>
        <mxCell id="MuoZc_a7aPeaP6ZBHlzd-19" value="Register Block Processing Handler" style="rounded=1;whiteSpace=wrap;html=1;" parent="1" vertex="1">
          <mxGeometry x="230" y="240" width="120" height="60" as="geometry" />
        </mxCell>
        <mxCell id="MuoZc_a7aPeaP6ZBHlzd-21" value="" style="endArrow=classic;html=1;rounded=0;exitX=1.025;exitY=0.383;exitDx=0;exitDy=0;exitPerimeter=0;" parent="1" source="MuoZc_a7aPeaP6ZBHlzd-18" target="MuoZc_a7aPeaP6ZBHlzd-19" edge="1">
          <mxGeometry width="50" height="50" relative="1" as="geometry">
            <mxPoint x="390" y="410" as="sourcePoint" />
            <mxPoint x="440" y="360" as="targetPoint" />
            <Array as="points">
              <mxPoint x="290" y="63" />
            </Array>
          </mxGeometry>
        </mxCell>
      </root>
    </mxGraphModel>
  </diagram>
</mxfile>
